<?xml version="1.0" encoding="UTF-8"?>
<svg xmlns="http://www.w3.org/2000/svg" xmlns:xlink="http://www.w3.org/1999/xlink" width="px" height="px" viewBox="0 0 200 75" version="1.1">
<g id="surface1">
<path style=" stroke:none;fill-rule:nonzero;fill:rgb(50.588235%,50.588235%,54.509804%);fill-opacity:1;" d="M 28.28125 26.695312 C 30.332031 24.828125 33.117188 23.734375 35.941406 23.601562 C 36.910156 23.601562 37.878906 23.605469 38.84375 23.597656 C 38.796875 24.585938 38.84375 25.578125 38.816406 26.566406 C 38.679688 28.773438 37.824219 30.933594 36.378906 32.664062 C 34.507812 34.996094 31.640625 36.5625 28.59375 36.964844 C 27.265625 37.167969 25.917969 37.039062 24.578125 37.074219 C 24.601562 35.988281 24.53125 34.898438 24.621094 33.8125 C 24.878906 31.121094 26.210938 28.542969 28.28125 26.695312 Z M 28.28125 26.695312 "/>
<path style=" stroke:none;fill-rule:nonzero;fill:rgb(50.588235%,50.588235%,54.509804%);fill-opacity:1;" d="M 39.738281 23.597656 C 40.773438 23.609375 41.8125 23.59375 42.851562 23.601562 C 45.433594 23.777344 47.984375 24.722656 49.933594 26.367188 C 52.082031 28.125 53.550781 30.636719 53.929688 33.320312 C 54.09375 34.566406 53.988281 35.828125 54.054688 37.078125 C 53.148438 37.074219 52.246094 37.074219 51.339844 37.078125 C 49.113281 37.019531 46.925781 36.332031 45.0625 35.175781 C 44.203125 34.589844 43.324219 33.996094 42.679688 33.179688 C 41.265625 31.675781 40.304688 29.785156 39.941406 27.792969 C 39.667969 26.40625 39.78125 24.996094 39.738281 23.597656 Z M 39.738281 23.597656 "/>
<path style=" stroke:none;fill-rule:nonzero;fill:rgb(50.588235%,50.588235%,54.509804%);fill-opacity:1;" d="M 24.582031 37.871094 C 25.5 37.917969 26.421875 37.828125 27.339844 37.925781 C 31.265625 38.003906 35.078125 40.109375 37.109375 43.3125 C 38.277344 45.105469 38.902344 47.230469 38.824219 49.34375 C 38.820312 50.035156 38.832031 50.726562 38.8125 51.414062 C 37.355469 51.371094 35.882812 51.484375 34.441406 51.21875 C 31.238281 50.703125 28.292969 48.882812 26.519531 46.289062 C 25.175781 44.398438 24.503906 42.09375 24.574219 39.816406 C 24.574219 39.164062 24.574219 38.519531 24.582031 37.871094 Z M 24.582031 37.871094 "/>
<path style=" stroke:none;fill-rule:nonzero;fill:rgb(50.588235%,50.588235%,54.509804%);fill-opacity:1;" d="M 49.152344 38.164062 C 50.730469 37.828125 52.355469 37.882812 53.960938 37.882812 L 54.03125 37.949219 C 53.996094 39.398438 54.117188 40.863281 53.8125 42.292969 C 53.171875 45.503906 50.941406 48.371094 47.945312 49.945312 C 46.078125 50.9375 43.9375 51.425781 41.804688 51.402344 C 41.121094 51.40625 40.4375 51.390625 39.753906 51.410156 C 39.753906 50.210938 39.703125 49.007812 39.84375 47.816406 C 40.175781 44.929688 41.8125 42.242188 44.164062 40.425781 C 45.621094 39.328125 47.335938 38.535156 49.152344 38.164062 Z M 49.152344 38.164062 "/>
<path style=" stroke:none;fill-rule:nonzero;fill:rgb(50.588235%,50.588235%,54.509804%);fill-opacity:1;" d="M 65.945312 46.054688 C 65.945312 46.539062 65.765625 46.953125 65.414062 47.289062 C 65.078125 47.609375 64.65625 47.769531 64.148438 47.769531 C 63.65625 47.769531 63.242188 47.609375 62.910156 47.289062 C 62.574219 46.953125 62.40625 46.539062 62.40625 46.054688 L 62.40625 28.679688 C 62.40625 28.191406 62.574219 27.789062 62.910156 27.46875 C 63.261719 27.132812 63.695312 26.964844 64.207031 26.964844 C 64.714844 26.964844 65.128906 27.132812 65.445312 27.46875 C 65.777344 27.789062 65.945312 28.191406 65.945312 28.679688 Z M 65.945312 46.054688 "/>
<path style=" stroke:none;fill-rule:nonzero;fill:rgb(50.588235%,50.588235%,54.509804%);fill-opacity:1;" d="M 80.140625 32.726562 C 80.652344 32.726562 81.074219 32.894531 81.40625 33.234375 C 81.742188 33.550781 81.910156 33.953125 81.910156 34.441406 L 81.910156 41.582031 C 81.910156 43.570312 81.328125 45.144531 80.171875 46.304688 C 79.011719 47.46875 77.339844 48.046875 75.160156 48.046875 C 72.976562 48.046875 71.308594 47.46875 70.148438 46.304688 C 69.007812 45.144531 68.441406 43.570312 68.441406 41.582031 L 68.441406 34.441406 C 68.441406 33.953125 68.605469 33.550781 68.941406 33.234375 C 69.273438 32.894531 69.695312 32.726562 70.207031 32.726562 C 70.71875 32.726562 71.140625 32.894531 71.476562 33.234375 C 71.808594 33.550781 71.976562 33.953125 71.976562 34.441406 L 71.976562 41.582031 C 71.976562 42.726562 72.242188 43.578125 72.773438 44.140625 C 73.300781 44.683594 74.097656 44.957031 75.160156 44.957031 C 76.242188 44.957031 77.046875 44.683594 77.578125 44.140625 C 78.105469 43.578125 78.371094 42.726562 78.371094 41.582031 L 78.371094 34.441406 C 78.371094 33.953125 78.539062 33.550781 78.871094 33.234375 C 79.207031 32.894531 79.628906 32.726562 80.140625 32.726562 Z M 80.140625 32.726562 "/>
<path style=" stroke:none;fill-rule:nonzero;fill:rgb(50.588235%,50.588235%,54.509804%);fill-opacity:1;" d="M 92.546875 32.445312 C 94.117188 32.445312 95.277344 32.8125 96.023438 33.542969 C 96.769531 34.253906 97.261719 35.183594 97.496094 36.324219 L 96.996094 36.070312 L 97.234375 35.621094 C 97.46875 35.191406 97.832031 34.730469 98.324219 34.246094 C 98.8125 33.738281 99.402344 33.316406 100.089844 32.980469 C 100.796875 32.625 101.585938 32.445312 102.449219 32.445312 C 103.863281 32.445312 104.933594 32.734375 105.660156 33.316406 C 106.410156 33.898438 106.917969 34.675781 107.195312 35.652344 C 107.46875 36.605469 107.605469 37.675781 107.605469 38.855469 L 107.605469 46.054688 C 107.605469 46.539062 107.441406 46.953125 107.105469 47.289062 C 106.773438 47.609375 106.347656 47.769531 105.839844 47.769531 C 105.328125 47.769531 104.90625 47.609375 104.570312 47.289062 C 104.238281 46.953125 104.070312 46.539062 104.070312 46.054688 L 104.070312 38.855469 C 104.070312 38.238281 103.992188 37.683594 103.835938 37.195312 C 103.675781 36.691406 103.390625 36.289062 102.980469 35.988281 C 102.566406 35.6875 101.976562 35.539062 101.210938 35.539062 C 100.464844 35.539062 99.824219 35.6875 99.296875 35.988281 C 98.765625 36.289062 98.363281 36.691406 98.085938 37.195312 C 97.832031 37.683594 97.703125 38.238281 97.703125 38.855469 L 97.703125 46.054688 C 97.703125 46.539062 97.535156 46.953125 97.203125 47.289062 C 96.867188 47.609375 96.445312 47.769531 95.933594 47.769531 C 95.425781 47.769531 95.003906 47.609375 94.667969 47.289062 C 94.335938 46.953125 94.167969 46.539062 94.167969 46.054688 L 94.167969 38.855469 C 94.167969 38.238281 94.089844 37.683594 93.929688 37.195312 C 93.773438 36.691406 93.488281 36.289062 93.078125 35.988281 C 92.664062 35.6875 92.074219 35.539062 91.308594 35.539062 C 90.5625 35.539062 89.921875 35.6875 89.390625 35.988281 C 88.863281 36.289062 88.460938 36.691406 88.183594 37.195312 C 87.929688 37.683594 87.800781 38.238281 87.800781 38.855469 L 87.800781 46.054688 C 87.800781 46.539062 87.632812 46.953125 87.300781 47.289062 C 86.964844 47.609375 86.542969 47.769531 86.03125 47.769531 C 85.523438 47.769531 85.097656 47.609375 84.765625 47.289062 C 84.429688 46.953125 84.265625 46.539062 84.265625 46.054688 L 84.265625 34.441406 C 84.265625 33.953125 84.429688 33.550781 84.765625 33.234375 C 85.097656 32.894531 85.523438 32.726562 86.03125 32.726562 C 86.542969 32.726562 86.964844 32.894531 87.300781 33.234375 C 87.632812 33.550781 87.800781 33.953125 87.800781 34.441406 L 87.800781 35.652344 L 87.359375 35.566406 C 87.535156 35.246094 87.78125 34.910156 88.09375 34.554688 C 88.410156 34.179688 88.792969 33.832031 89.246094 33.511719 C 89.695312 33.195312 90.199219 32.941406 90.746094 32.753906 C 91.296875 32.546875 91.898438 32.445312 92.546875 32.445312 Z M 92.546875 32.445312 "/>
<path style=" stroke:none;fill-rule:nonzero;fill:rgb(50.588235%,50.588235%,54.509804%);fill-opacity:1;" d="M 113.292969 46.054688 C 113.292969 46.539062 113.125 46.953125 112.789062 47.289062 C 112.457031 47.609375 112.035156 47.769531 111.523438 47.769531 C 111.011719 47.769531 110.589844 47.609375 110.253906 47.289062 C 109.921875 46.953125 109.753906 46.539062 109.753906 46.054688 L 109.753906 34.441406 C 109.753906 33.953125 109.921875 33.550781 110.253906 33.234375 C 110.589844 32.894531 111.011719 32.726562 111.523438 32.726562 C 112.035156 32.726562 112.457031 32.894531 112.789062 33.234375 C 113.125 33.550781 113.292969 33.953125 113.292969 34.441406 Z M 111.492188 30.898438 C 110.824219 30.898438 110.355469 30.796875 110.078125 30.589844 C 109.804688 30.382812 109.667969 30.019531 109.667969 29.492188 L 109.667969 28.960938 C 109.667969 28.414062 109.8125 28.050781 110.109375 27.863281 C 110.421875 27.65625 110.894531 27.554688 111.523438 27.554688 C 112.210938 27.554688 112.691406 27.65625 112.96875 27.863281 C 113.242188 28.070312 113.378906 28.433594 113.378906 28.960938 L 113.378906 29.492188 C 113.378906 30.035156 113.234375 30.410156 112.9375 30.617188 C 112.644531 30.804688 112.160156 30.898438 111.492188 30.898438 Z M 111.492188 30.898438 "/>
<path style=" stroke:none;fill-rule:nonzero;fill:rgb(50.588235%,50.588235%,54.509804%);fill-opacity:1;" d="M 123.882812 32.445312 C 125.335938 32.445312 126.4375 32.734375 127.183594 33.316406 C 127.949219 33.898438 128.46875 34.675781 128.746094 35.652344 C 129.039062 36.605469 129.1875 37.675781 129.1875 38.855469 L 129.1875 46.054688 C 129.1875 46.539062 129.019531 46.953125 128.6875 47.289062 C 128.351562 47.609375 127.929688 47.769531 127.417969 47.769531 C 126.90625 47.769531 126.484375 47.609375 126.152344 47.289062 C 125.816406 46.953125 125.648438 46.539062 125.648438 46.054688 L 125.648438 38.855469 C 125.648438 38.238281 125.5625 37.683594 125.386719 37.195312 C 125.226562 36.691406 124.933594 36.289062 124.5 35.988281 C 124.070312 35.6875 123.449219 35.539062 122.644531 35.539062 C 121.859375 35.539062 121.191406 35.6875 120.640625 35.988281 C 120.109375 36.289062 119.695312 36.691406 119.402344 37.195312 C 119.128906 37.683594 118.988281 38.238281 118.988281 38.855469 L 118.988281 46.054688 C 118.988281 46.539062 118.824219 46.953125 118.488281 47.289062 C 118.15625 47.609375 117.730469 47.769531 117.222656 47.769531 C 116.710938 47.769531 116.289062 47.609375 115.953125 47.289062 C 115.621094 46.953125 115.453125 46.539062 115.453125 46.054688 L 115.453125 34.441406 C 115.453125 33.953125 115.621094 33.550781 115.953125 33.234375 C 116.289062 32.894531 116.710938 32.726562 117.222656 32.726562 C 117.730469 32.726562 118.15625 32.894531 118.488281 33.234375 C 118.824219 33.550781 118.988281 33.953125 118.988281 34.441406 L 118.988281 35.652344 L 118.546875 35.566406 C 118.722656 35.246094 118.980469 34.910156 119.3125 34.554688 C 119.648438 34.179688 120.039062 33.832031 120.492188 33.511719 C 120.945312 33.195312 121.457031 32.941406 122.023438 32.753906 C 122.59375 32.546875 123.214844 32.445312 123.882812 32.445312 Z M 123.882812 32.445312 "/>
<path style=" stroke:none;fill-rule:nonzero;fill:rgb(50.588235%,50.588235%,54.509804%);fill-opacity:1;" d="M 146.683594 40.261719 C 146.683594 41.796875 146.320312 43.15625 145.59375 44.335938 C 144.886719 45.5 143.925781 46.410156 142.707031 47.066406 C 141.507812 47.722656 140.160156 48.046875 138.667969 48.046875 C 137.175781 48.046875 135.820312 47.722656 134.601562 47.066406 C 133.402344 46.410156 132.441406 45.5 131.714844 44.335938 C 131.007812 43.15625 130.652344 41.796875 130.652344 40.261719 C 130.652344 38.722656 131.007812 37.375 131.714844 36.210938 C 132.441406 35.03125 133.402344 34.113281 134.601562 33.457031 C 135.820312 32.78125 137.175781 32.445312 138.667969 32.445312 C 140.160156 32.445312 141.507812 32.78125 142.707031 33.457031 C 143.925781 34.113281 144.886719 35.03125 145.59375 36.210938 C 146.320312 37.375 146.683594 38.722656 146.683594 40.261719 Z M 143.148438 40.261719 C 143.148438 39.304688 142.941406 38.480469 142.53125 37.785156 C 142.136719 37.074219 141.597656 36.523438 140.910156 36.128906 C 140.242188 35.734375 139.492188 35.539062 138.667969 35.539062 C 137.84375 35.539062 137.085938 35.734375 136.398438 36.128906 C 135.730469 36.523438 135.191406 37.074219 134.777344 37.785156 C 134.386719 38.480469 134.1875 39.304688 134.1875 40.261719 C 134.1875 41.199219 134.386719 42.023438 134.777344 42.734375 C 135.191406 43.429688 135.730469 43.972656 136.398438 44.367188 C 137.085938 44.757812 137.84375 44.957031 138.667969 44.957031 C 139.492188 44.957031 140.242188 44.757812 140.910156 44.367188 C 141.597656 43.972656 142.136719 43.429688 142.53125 42.734375 C 142.941406 42.023438 143.148438 41.199219 143.148438 40.261719 Z M 143.148438 40.261719 "/>
<path style=" stroke:none;fill-rule:nonzero;fill:rgb(50.588235%,50.588235%,54.509804%);fill-opacity:1;" d="M 159.867188 32.726562 C 160.378906 32.726562 160.800781 32.894531 161.136719 33.234375 C 161.46875 33.550781 161.636719 33.953125 161.636719 34.441406 L 161.636719 41.582031 C 161.636719 43.570312 161.054688 45.144531 159.898438 46.304688 C 158.738281 47.46875 157.066406 48.046875 154.886719 48.046875 C 152.707031 48.046875 151.035156 47.46875 149.875 46.304688 C 148.738281 45.144531 148.167969 43.570312 148.167969 41.582031 L 148.167969 34.441406 C 148.167969 33.953125 148.332031 33.550781 148.667969 33.234375 C 149.003906 32.894531 149.425781 32.726562 149.933594 32.726562 C 150.445312 32.726562 150.867188 32.894531 151.203125 33.234375 C 151.535156 33.550781 151.703125 33.953125 151.703125 34.441406 L 151.703125 41.582031 C 151.703125 42.726562 151.96875 43.578125 152.5 44.140625 C 153.03125 44.683594 153.824219 44.957031 154.886719 44.957031 C 155.96875 44.957031 156.773438 44.683594 157.304688 44.140625 C 157.835938 43.578125 158.097656 42.726562 158.097656 41.582031 L 158.097656 34.441406 C 158.097656 33.953125 158.265625 33.550781 158.601562 33.234375 C 158.933594 32.894531 159.355469 32.726562 159.867188 32.726562 Z M 159.867188 32.726562 "/>
<path style=" stroke:none;fill-rule:nonzero;fill:rgb(50.588235%,50.588235%,54.509804%);fill-opacity:1;" d="M 163.078125 45.433594 C 162.882812 45.171875 162.792969 44.835938 162.8125 44.421875 C 162.832031 44.011719 163.085938 43.652344 163.578125 43.355469 C 163.894531 43.167969 164.226562 43.089844 164.582031 43.128906 C 164.933594 43.148438 165.277344 43.316406 165.613281 43.636719 C 166.183594 44.179688 166.78125 44.601562 167.410156 44.898438 C 168.039062 45.199219 168.824219 45.351562 169.769531 45.351562 C 170.0625 45.332031 170.386719 45.292969 170.742188 45.238281 C 171.09375 45.164062 171.398438 45.011719 171.652344 44.789062 C 171.929688 44.542969 172.066406 44.179688 172.066406 43.691406 C 172.066406 43.277344 171.917969 42.949219 171.625 42.707031 C 171.328125 42.464844 170.9375 42.257812 170.445312 42.089844 C 169.972656 41.921875 169.445312 41.761719 168.855469 41.609375 C 168.246094 41.441406 167.617188 41.253906 166.96875 41.046875 C 166.339844 40.84375 165.757812 40.578125 165.230469 40.261719 C 164.699219 39.921875 164.265625 39.484375 163.933594 38.941406 C 163.597656 38.394531 163.429688 37.710938 163.429688 36.886719 C 163.429688 35.949219 163.707031 35.152344 164.257812 34.496094 C 164.808594 33.839844 165.515625 33.335938 166.378906 32.980469 C 167.261719 32.625 168.1875 32.445312 169.148438 32.445312 C 169.757812 32.445312 170.398438 32.519531 171.066406 32.671875 C 171.734375 32.800781 172.371094 33.027344 172.980469 33.34375 C 173.589844 33.644531 174.101562 34.046875 174.511719 34.554688 C 174.730469 34.835938 174.855469 35.171875 174.898438 35.566406 C 174.933594 35.960938 174.75 36.316406 174.335938 36.632812 C 174.042969 36.859375 173.699219 36.960938 173.304688 36.945312 C 172.910156 36.90625 172.585938 36.773438 172.332031 36.550781 C 171.996094 36.136719 171.546875 35.808594 170.976562 35.566406 C 170.425781 35.324219 169.789062 35.199219 169.058594 35.199219 C 168.765625 35.199219 168.441406 35.238281 168.089844 35.3125 C 167.753906 35.371094 167.460938 35.511719 167.203125 35.734375 C 166.949219 35.941406 166.820312 36.277344 166.820312 36.746094 C 166.820312 37.179688 166.96875 37.523438 167.261719 37.785156 C 167.558594 38.03125 167.949219 38.238281 168.441406 38.40625 C 168.953125 38.554688 169.492188 38.707031 170.0625 38.855469 C 170.652344 39.003906 171.25 39.183594 171.859375 39.390625 C 172.46875 39.597656 173.03125 39.867188 173.539062 40.203125 C 174.050781 40.542969 174.464844 40.984375 174.777344 41.527344 C 175.09375 42.050781 175.25 42.726562 175.25 43.550781 C 175.25 44.507812 174.957031 45.320312 174.367188 45.996094 C 173.777344 46.671875 173.039062 47.1875 172.15625 47.542969 C 171.269531 47.878906 170.367188 48.046875 169.445312 48.046875 C 168.285156 48.046875 167.125 47.863281 165.964844 47.488281 C 164.808594 47.09375 163.84375 46.410156 163.078125 45.433594 Z M 163.078125 45.433594 "/>
</g>
</svg>
