<?xml version="1.0" encoding="UTF-8"?>
<svg xmlns="http://www.w3.org/2000/svg" xmlns:xlink="http://www.w3.org/1999/xlink" width="px" height="px" viewBox="0 0 200 75" version="1.1">
<g id="surface1">
<path style=" stroke:none;fill-rule:nonzero;fill:rgb(50.588235%,50.588235%,54.509804%);fill-opacity:1;" d="M 21.898438 42.980469 L 33.003906 38.167969 L 39.394531 41.777344 L 40.6875 53.617188 L 32.808594 53.554688 L 33.972656 45.320312 L 32.617188 44.5625 L 25.964844 49.628906 Z M 21.898438 42.980469 "/>
<path style=" stroke:none;fill-rule:nonzero;fill:rgb(50.588235%,50.588235%,54.509804%);fill-opacity:1;" d="M 40.105469 41.269531 L 49.917969 48.296875 L 53.792969 41.523438 L 45.914062 38.421875 L 45.914062 36.898438 L 53.792969 33.734375 L 49.917969 27.023438 L 40.105469 34.050781 Z M 40.105469 41.269531 "/>
<path style=" stroke:none;fill-rule:nonzero;fill:rgb(50.588235%,50.588235%,54.509804%);fill-opacity:1;" d="M 39.394531 33.480469 L 40.6875 21.640625 L 32.808594 21.765625 L 33.972656 30 L 32.617188 30.757812 L 25.902344 25.691406 L 21.898438 32.277344 L 33.003906 37.089844 Z M 39.394531 33.480469 "/>
<path style=" stroke:none;fill-rule:nonzero;fill:rgb(50.588235%,50.588235%,54.509804%);fill-opacity:1;" d="M 80.070312 36.210938 L 80.070312 47.304688 L 84.308594 47.304688 L 84.308594 33.164062 L 78.136719 33.164062 L 78.136719 36.210938 Z M 80.070312 36.210938 "/>
<path style=" stroke:none;fill-rule:nonzero;fill:rgb(50.588235%,50.588235%,54.509804%);fill-opacity:1;" d="M 79.9375 31.179688 C 80.324219 31.574219 80.917969 31.773438 81.710938 31.773438 C 82.507812 31.773438 83.089844 31.574219 83.460938 31.179688 C 83.847656 30.765625 84.042969 30.25 84.042969 29.632812 C 84.042969 28.996094 83.847656 28.480469 83.460938 28.082031 C 83.089844 27.671875 82.507812 27.464844 81.710938 27.464844 C 80.917969 27.464844 80.324219 27.671875 79.9375 28.082031 C 79.566406 28.480469 79.378906 28.996094 79.378906 29.632812 C 79.378906 30.25 79.566406 30.765625 79.9375 31.179688 Z M 79.9375 31.179688 "/>
<path style=" stroke:none;fill-rule:nonzero;fill:rgb(50.588235%,50.588235%,54.509804%);fill-opacity:1;" d="M 65.3125 46.992188 C 66.511719 47.527344 67.988281 47.792969 69.734375 47.792969 C 71.378906 47.792969 72.792969 47.542969 73.976562 47.046875 C 75.160156 46.546875 76.070312 45.851562 76.703125 44.957031 C 77.359375 44.042969 77.683594 42.984375 77.683594 41.78125 C 77.683594 40.613281 77.375 39.625 76.757812 38.816406 C 76.15625 37.988281 75.316406 37.34375 74.242188 36.878906 C 73.164062 36.398438 71.917969 36.097656 70.503906 35.976562 L 69.019531 35.847656 C 68.136719 35.78125 67.503906 35.546875 67.113281 35.152344 C 66.722656 34.757812 66.53125 34.292969 66.53125 33.757812 C 66.53125 33.347656 66.636719 32.96875 66.847656 32.625 C 67.058594 32.261719 67.378906 31.980469 67.800781 31.773438 C 68.242188 31.566406 68.78125 31.464844 69.417969 31.464844 C 70.089844 31.464844 70.644531 31.582031 71.085938 31.824219 C 71.183594 31.875 71.277344 31.929688 71.363281 31.988281 L 71.382812 32 C 71.417969 32.023438 71.449219 32.046875 71.480469 32.070312 C 71.75 32.269531 71.960938 32.503906 72.121094 32.777344 C 72.351562 33.15625 72.464844 33.578125 72.464844 34.042969 L 76.703125 34.042969 C 76.703125 32.804688 76.414062 31.730469 75.828125 30.816406 C 75.246094 29.890625 74.410156 29.175781 73.3125 28.675781 C 72.234375 28.160156 70.9375 27.902344 69.417969 27.902344 C 67.96875 27.902344 66.714844 28.144531 65.65625 28.625 C 64.597656 29.089844 63.765625 29.761719 63.164062 30.636719 C 62.582031 31.515625 62.289062 32.554688 62.289062 33.757812 C 62.289062 35.425781 62.867188 36.769531 64.011719 37.785156 C 65.160156 38.796875 66.699219 39.382812 68.625 39.539062 L 70.082031 39.667969 C 71.265625 39.769531 72.121094 40.003906 72.652344 40.363281 C 73.179688 40.707031 73.445312 41.179688 73.445312 41.78125 C 73.445312 42.058594 73.398438 42.316406 73.304688 42.5625 C 73.238281 42.742188 73.140625 42.910156 73.023438 43.070312 C 72.738281 43.433594 72.324219 43.71875 71.777344 43.921875 C 71.230469 44.128906 70.550781 44.234375 69.734375 44.234375 C 68.835938 44.234375 68.101562 44.113281 67.539062 43.871094 C 66.972656 43.613281 66.546875 43.277344 66.265625 42.867188 C 66 42.453125 65.867188 42.003906 65.867188 41.523438 L 61.65625 41.523438 C 61.65625 42.746094 61.964844 43.828125 62.582031 44.773438 C 63.199219 45.703125 64.109375 46.441406 65.3125 46.992188 Z M 65.3125 46.992188 "/>
<path style=" stroke:none;fill-rule:nonzero;fill:rgb(50.588235%,50.588235%,54.509804%);fill-opacity:1;" d="M 93.765625 47.484375 C 92.300781 47.484375 91.117188 47.3125 90.214844 46.96875 C 89.316406 46.605469 88.652344 46.011719 88.230469 45.1875 C 87.824219 44.34375 87.621094 43.210938 87.621094 41.78125 L 87.621094 36.183594 L 85.421875 36.183594 L 85.421875 33.164062 L 87.621094 33.164062 L 87.621094 29.347656 L 91.566406 29.347656 L 91.566406 33.164062 L 95.804688 33.164062 L 95.804688 36.183594 L 91.566406 36.183594 L 91.566406 41.9375 C 91.566406 42.609375 91.742188 43.125 92.097656 43.484375 C 92.46875 43.828125 92.988281 44 93.660156 44 L 95.804688 44 L 95.804688 47.484375 Z M 93.765625 47.484375 "/>
<path style=" stroke:none;fill-rule:evenodd;fill:rgb(50.588235%,50.588235%,54.509804%);fill-opacity:1;" d="M 100.910156 47.175781 C 101.863281 47.585938 102.960938 47.792969 104.195312 47.792969 C 105.414062 47.792969 106.492188 47.585938 107.429688 47.175781 C 108.363281 46.761719 109.140625 46.183594 109.757812 45.445312 C 110.378906 44.707031 110.792969 43.863281 111.003906 42.917969 L 107.109375 42.917969 C 106.933594 43.347656 106.597656 43.707031 106.101562 44 C 105.609375 44.292969 104.972656 44.441406 104.195312 44.441406 C 103.714844 44.441406 103.285156 44.382812 102.90625 44.273438 C 102.617188 44.1875 102.359375 44.074219 102.128906 43.921875 C 101.597656 43.578125 101.210938 43.097656 100.964844 42.480469 C 100.894531 42.300781 100.835938 42.117188 100.785156 41.925781 C 100.734375 41.730469 100.695312 41.527344 100.664062 41.316406 L 111.269531 41.316406 L 111.269531 39.925781 C 111.269531 38.636719 110.988281 37.449219 110.421875 36.363281 C 109.855469 35.265625 109.035156 34.378906 107.957031 33.707031 C 106.898438 33.019531 105.589844 32.675781 104.035156 32.675781 C 102.851562 32.675781 101.792969 32.882812 100.855469 33.292969 C 99.9375 33.691406 99.171875 34.230469 98.550781 34.917969 C 97.933594 35.609375 97.457031 36.390625 97.121094 37.269531 C 96.804688 38.128906 96.644531 39.03125 96.644531 39.976562 L 96.644531 40.492188 C 96.644531 41.402344 96.804688 42.296875 97.121094 43.175781 C 97.457031 44.035156 97.933594 44.816406 98.550781 45.523438 C 99.1875 46.210938 99.972656 46.761719 100.910156 47.175781 Z M 100.738281 38.765625 C 100.75 38.710938 100.761719 38.660156 100.777344 38.605469 C 100.8125 38.460938 100.855469 38.320312 100.902344 38.1875 C 100.929688 38.109375 100.960938 38.035156 100.988281 37.964844 C 101.253906 37.328125 101.644531 36.847656 102.15625 36.519531 C 102.347656 36.398438 102.554688 36.296875 102.777344 36.222656 C 103.152344 36.09375 103.570312 36.027344 104.035156 36.027344 C 104.761719 36.027344 105.359375 36.191406 105.839844 36.519531 C 106.332031 36.828125 106.703125 37.285156 106.949219 37.886719 C 106.972656 37.933594 106.988281 37.984375 107.007812 38.035156 C 107.039062 38.113281 107.066406 38.195312 107.089844 38.28125 C 107.128906 38.40625 107.160156 38.535156 107.1875 38.667969 C 107.210938 38.765625 107.226562 38.867188 107.242188 38.96875 L 100.695312 38.96875 C 100.710938 38.902344 100.722656 38.832031 100.738281 38.765625 Z M 100.738281 38.765625 "/>
<path style=" stroke:none;fill-rule:nonzero;fill:rgb(50.588235%,50.588235%,54.509804%);fill-opacity:1;" d="M 113.019531 47.304688 L 113.019531 33.164062 L 116.382812 33.164062 L 116.382812 36.726562 C 116.429688 36.515625 116.480469 36.3125 116.539062 36.117188 C 116.589844 35.953125 116.644531 35.792969 116.703125 35.640625 C 117.074219 34.679688 117.628906 33.957031 118.371094 33.476562 C 119.113281 32.976562 120.023438 32.726562 121.101562 32.726562 L 121.285156 32.726562 C 122.378906 32.726562 123.289062 32.976562 124.015625 33.476562 C 124.757812 33.957031 125.3125 34.679688 125.683594 35.640625 L 125.710938 35.714844 L 125.738281 35.78125 C 125.753906 35.734375 125.773438 35.6875 125.789062 35.640625 C 126.175781 34.679688 126.742188 33.957031 127.484375 33.476562 C 128.226562 32.976562 129.136719 32.726562 130.214844 32.726562 L 130.398438 32.726562 C 131.492188 32.726562 132.414062 32.976562 133.15625 33.476562 C 133.914062 33.957031 134.488281 34.679688 134.875 35.640625 C 135.265625 36.605469 135.460938 37.808594 135.460938 39.253906 L 135.460938 47.304688 L 131.21875 47.304688 L 131.21875 39.023438 C 131.21875 38.246094 131.007812 37.621094 130.585938 37.136719 C 130.179688 36.65625 129.59375 36.417969 128.835938 36.417969 C 128.078125 36.417969 127.476562 36.664062 127.035156 37.164062 C 126.59375 37.644531 126.371094 38.289062 126.371094 39.097656 L 126.371094 47.304688 L 122.105469 47.304688 L 122.105469 39.023438 C 122.105469 38.246094 121.894531 37.621094 121.46875 37.136719 C 121.066406 36.65625 120.488281 36.417969 119.75 36.417969 C 118.972656 36.417969 118.363281 36.664062 117.921875 37.164062 C 117.480469 37.644531 117.257812 38.289062 117.257812 39.097656 L 117.257812 47.304688 Z M 113.019531 47.304688 "/>
<path style=" stroke:none;fill-rule:evenodd;fill:rgb(50.588235%,50.588235%,54.509804%);fill-opacity:1;" d="M 146.785156 44.578125 L 146.785156 47.304688 L 150.148438 47.304688 L 150.148438 38.636719 C 150.148438 37.328125 149.882812 36.261719 149.351562 35.4375 C 148.824219 34.59375 148.046875 33.964844 147.023438 33.550781 C 146.015625 33.140625 144.769531 32.933594 143.285156 32.933594 C 142.964844 32.933594 142.628906 32.9375 142.277344 32.945312 C 142.070312 32.949219 141.859375 32.953125 141.644531 32.960938 C 141.058594 32.976562 140.496094 33.003906 139.949219 33.035156 L 139.53125 33.0625 C 139.316406 33.078125 139.113281 33.09375 138.921875 33.109375 C 138.78125 33.117188 138.644531 33.128906 138.515625 33.140625 L 138.515625 36.621094 C 139.066406 36.589844 139.675781 36.554688 140.34375 36.519531 C 140.53125 36.511719 140.71875 36.5 140.902344 36.492188 C 141.171875 36.480469 141.433594 36.46875 141.695312 36.460938 C 141.898438 36.453125 142.101562 36.449219 142.304688 36.441406 C 142.941406 36.425781 143.453125 36.417969 143.84375 36.417969 C 144.621094 36.417969 145.183594 36.597656 145.539062 36.957031 C 145.890625 37.320312 146.066406 37.859375 146.066406 38.582031 L 146.066406 38.636719 L 143.445312 38.636719 C 142.15625 38.636719 141.015625 38.796875 140.027344 39.125 C 139.039062 39.433594 138.269531 39.925781 137.722656 40.59375 C 137.175781 41.25 136.902344 42.09375 136.902344 43.125 C 136.902344 44.070312 137.121094 44.886719 137.5625 45.574219 C 138.003906 46.246094 138.613281 46.761719 139.390625 47.121094 C 140.1875 47.484375 141.105469 47.664062 142.148438 47.664062 C 143.152344 47.664062 144 47.484375 144.691406 47.121094 C 145.398438 46.761719 145.945312 46.246094 146.332031 45.574219 C 146.402344 45.460938 146.464844 45.34375 146.523438 45.222656 C 146.609375 45.050781 146.683594 44.871094 146.75 44.679688 Z M 146.066406 42.066406 L 146.066406 40.929688 L 143.417969 40.929688 C 142.675781 40.929688 142.101562 41.113281 141.695312 41.472656 C 141.308594 41.816406 141.113281 42.289062 141.113281 42.890625 C 141.113281 43.175781 141.160156 43.433594 141.257812 43.664062 C 141.355469 43.898438 141.503906 44.105469 141.695312 44.285156 C 142.101562 44.628906 142.675781 44.800781 143.417969 44.800781 C 143.558594 44.800781 143.695312 44.792969 143.828125 44.78125 C 143.933594 44.769531 144.039062 44.753906 144.140625 44.734375 C 144.335938 44.695312 144.519531 44.640625 144.691406 44.566406 C 145.078125 44.398438 145.398438 44.113281 145.644531 43.71875 C 145.890625 43.320312 146.03125 42.769531 146.066406 42.066406 Z M 146.066406 42.066406 "/>
<path style=" stroke:none;fill-rule:nonzero;fill:rgb(50.588235%,50.588235%,54.509804%);fill-opacity:1;" d="M 152.683594 47.304688 L 152.683594 33.164062 L 156.050781 33.164062 L 156.050781 37.832031 C 156.210938 36.5 156.617188 35.425781 157.269531 34.609375 C 158.152344 33.527344 159.421875 32.984375 161.085938 32.984375 L 161.640625 32.984375 L 161.640625 36.546875 L 160.582031 36.546875 C 159.414062 36.546875 158.515625 36.855469 157.878906 37.472656 C 157.242188 38.074219 156.925781 38.953125 156.925781 40.105469 L 156.925781 47.304688 Z M 152.683594 47.304688 "/>
<path style=" stroke:none;fill-rule:nonzero;fill:rgb(50.588235%,50.588235%,54.509804%);fill-opacity:1;" d="M 167.015625 40.699219 L 168.421875 40.699219 L 173.003906 47.304688 L 177.773438 47.304688 L 171.960938 39.191406 L 176.738281 33.164062 L 172.289062 33.164062 L 167.015625 39.886719 L 167.015625 28.46875 L 162.777344 28.46875 L 162.777344 47.304688 L 167.015625 47.304688 Z M 167.015625 40.699219 "/>
</g>
</svg>
