<?xml version="1.0" encoding="UTF-8"?>
<svg xmlns="http://www.w3.org/2000/svg" xmlns:xlink="http://www.w3.org/1999/xlink" width="px" height="px" viewBox="0 0 200 75" version="1.1">
<g id="surface1">
<path style=" stroke:none;fill-rule:nonzero;fill:rgb(50.588235%,50.588235%,54.509804%);fill-opacity:1;" d="M 67.683594 29.082031 C 69.195312 29.082031 70.503906 29.324219 71.609375 29.8125 C 72.730469 30.296875 73.59375 30.988281 74.195312 31.882812 C 74.796875 32.777344 75.097656 33.839844 75.097656 35.0625 C 75.097656 36.273438 74.796875 37.332031 74.195312 38.242188 C 73.59375 39.136719 72.730469 39.828125 71.609375 40.316406 C 70.503906 40.785156 69.195312 41.019531 67.683594 41.019531 L 64.246094 41.019531 L 64.246094 45.566406 L 60.296875 45.566406 L 60.296875 29.082031 Z M 67.464844 37.914062 C 68.652344 37.914062 69.554688 37.667969 70.171875 37.183594 C 70.789062 36.679688 71.097656 35.972656 71.097656 35.0625 C 71.097656 34.136719 70.789062 33.429688 70.171875 32.941406 C 69.554688 32.441406 68.652344 32.191406 67.464844 32.191406 L 64.246094 32.191406 L 64.246094 37.914062 Z M 67.464844 37.914062 "/>
<path style=" stroke:none;fill-rule:nonzero;fill:rgb(50.588235%,50.588235%,54.509804%);fill-opacity:1;" d="M 80.0625 34.566406 C 80.515625 33.957031 81.125 33.492188 81.890625 33.179688 C 82.671875 32.863281 83.5625 32.707031 84.570312 32.707031 L 84.570312 36.097656 C 84.148438 36.066406 83.863281 36.050781 83.71875 36.050781 C 82.628906 36.050781 81.777344 36.351562 81.160156 36.945312 C 80.539062 37.527344 80.230469 38.40625 80.230469 39.585938 L 80.230469 45.566406 L 76.429688 45.566406 L 76.429688 32.894531 L 80.0625 32.894531 Z M 80.0625 34.566406 "/>
<path style=" stroke:none;fill-rule:nonzero;fill:rgb(50.588235%,50.588235%,54.509804%);fill-opacity:1;" d="M 91.738281 45.753906 C 90.355469 45.753906 89.113281 45.480469 88.007812 44.929688 C 86.917969 44.367188 86.066406 43.589844 85.445312 42.597656 C 84.828125 41.609375 84.519531 40.488281 84.519531 39.230469 C 84.519531 37.976562 84.828125 36.851562 85.445312 35.863281 C 86.066406 34.875 86.917969 34.105469 88.007812 33.554688 C 89.113281 32.992188 90.355469 32.707031 91.738281 32.707031 C 93.117188 32.707031 94.355469 32.992188 95.441406 33.554688 C 96.53125 34.105469 97.386719 34.875 98.003906 35.863281 C 98.621094 36.851562 98.929688 37.976562 98.929688 39.230469 C 98.929688 40.488281 98.621094 41.609375 98.003906 42.597656 C 97.386719 43.589844 96.53125 44.367188 95.441406 44.929688 C 94.355469 45.480469 93.117188 45.753906 91.738281 45.753906 Z M 91.738281 42.742188 C 92.710938 42.742188 93.507812 42.425781 94.125 41.796875 C 94.761719 41.15625 95.078125 40.300781 95.078125 39.230469 C 95.078125 38.164062 94.761719 37.316406 94.125 36.6875 C 93.507812 36.042969 92.710938 35.722656 91.738281 35.722656 C 90.761719 35.722656 89.957031 36.042969 89.324219 36.6875 C 88.691406 37.316406 88.371094 38.164062 88.371094 39.230469 C 88.371094 40.300781 88.691406 41.15625 89.324219 41.796875 C 89.957031 42.425781 90.761719 42.742188 91.738281 42.742188 Z M 91.738281 42.742188 "/>
<path style=" stroke:none;fill-rule:nonzero;fill:rgb(50.588235%,50.588235%,54.509804%);fill-opacity:1;" d="M 116.175781 29.082031 L 116.175781 45.566406 L 112.929688 45.566406 L 104.421875 35.558594 L 104.421875 45.566406 L 100.519531 45.566406 L 100.519531 29.082031 L 103.789062 29.082031 L 112.273438 39.089844 L 112.273438 29.082031 Z M 116.175781 29.082031 "/>
<path style=" stroke:none;fill-rule:nonzero;fill:rgb(50.588235%,50.588235%,54.509804%);fill-opacity:1;" d="M 124.015625 32.707031 C 126.046875 32.707031 127.609375 33.179688 128.695312 34.121094 C 129.785156 35.046875 130.328125 36.453125 130.328125 38.335938 L 130.328125 45.566406 L 126.769531 45.566406 L 126.769531 43.988281 C 126.054688 45.167969 124.722656 45.753906 122.773438 45.753906 C 121.765625 45.753906 120.886719 45.589844 120.136719 45.261719 C 119.40625 44.929688 118.847656 44.476562 118.457031 43.894531 C 118.066406 43.3125 117.871094 42.652344 117.871094 41.917969 C 117.871094 40.738281 118.328125 39.8125 119.238281 39.136719 C 120.164062 38.460938 121.585938 38.125 123.503906 38.125 L 126.527344 38.125 C 126.527344 37.324219 126.273438 36.710938 125.769531 36.289062 C 125.265625 35.847656 124.511719 35.628906 123.503906 35.628906 C 122.804688 35.628906 122.113281 35.738281 121.429688 35.957031 C 120.765625 36.160156 120.195312 36.445312 119.722656 36.804688 L 118.359375 34.238281 C 119.074219 33.75 119.925781 33.375 120.917969 33.109375 C 121.925781 32.839844 122.960938 32.707031 124.015625 32.707031 Z M 123.722656 43.28125 C 124.371094 43.28125 124.949219 43.140625 125.453125 42.859375 C 125.957031 42.558594 126.316406 42.128906 126.527344 41.5625 L 126.527344 40.269531 L 123.917969 40.269531 C 122.359375 40.269531 121.578125 40.761719 121.578125 41.75 C 121.578125 42.222656 121.765625 42.597656 122.136719 42.882812 C 122.527344 43.148438 123.054688 43.28125 123.722656 43.28125 Z M 123.722656 43.28125 "/>
<path style=" stroke:none;fill-rule:nonzero;fill:rgb(50.588235%,50.588235%,54.509804%);fill-opacity:1;" d="M 141.011719 44.953125 C 140.640625 45.222656 140.175781 45.425781 139.625 45.566406 C 139.085938 45.691406 138.519531 45.753906 137.917969 45.753906 C 136.355469 45.753906 135.144531 45.371094 134.285156 44.601562 C 133.4375 43.832031 133.015625 42.703125 133.015625 41.210938 L 133.015625 36.003906 L 130.992188 36.003906 L 130.992188 33.179688 L 133.015625 33.179688 L 133.015625 30.09375 L 136.820312 30.09375 L 136.820312 33.179688 L 140.085938 33.179688 L 140.085938 36.003906 L 136.820312 36.003906 L 136.820312 41.164062 C 136.820312 41.695312 136.957031 42.113281 137.234375 42.410156 C 137.527344 42.695312 137.933594 42.835938 138.453125 42.835938 C 139.054688 42.835938 139.566406 42.679688 139.988281 42.363281 Z M 141.011719 44.953125 "/>
<path style=" stroke:none;fill-rule:nonzero;fill:rgb(50.588235%,50.588235%,54.509804%);fill-opacity:1;" d="M 155.144531 32.894531 L 155.144531 45.566406 L 151.535156 45.566406 L 151.535156 44.058594 C 151.03125 44.609375 150.429688 45.03125 149.730469 45.332031 C 149.03125 45.613281 148.277344 45.753906 147.464844 45.753906 C 145.742188 45.753906 144.375 45.277344 143.367188 44.320312 C 142.359375 43.359375 141.855469 41.941406 141.855469 40.054688 L 141.855469 32.894531 L 145.660156 32.894531 L 145.660156 39.515625 C 145.660156 41.554688 146.546875 42.574219 148.316406 42.574219 C 149.226562 42.574219 149.960938 42.292969 150.511719 41.726562 C 151.0625 41.148438 151.339844 40.292969 151.339844 39.160156 L 151.339844 32.894531 Z M 155.144531 32.894531 "/>
<path style=" stroke:none;fill-rule:nonzero;fill:rgb(50.588235%,50.588235%,54.509804%);fill-opacity:1;" d="M 161.082031 34.566406 C 161.535156 33.957031 162.148438 33.492188 162.910156 33.179688 C 163.691406 32.863281 164.585938 32.707031 165.59375 32.707031 L 165.59375 36.097656 C 165.167969 36.066406 164.886719 36.050781 164.738281 36.050781 C 163.648438 36.050781 162.796875 36.351562 162.179688 36.945312 C 161.5625 37.527344 161.253906 38.40625 161.253906 39.585938 L 161.253906 45.566406 L 157.449219 45.566406 L 157.449219 32.894531 L 161.082031 32.894531 Z M 161.082031 34.566406 "/>
<path style=" stroke:none;fill-rule:nonzero;fill:rgb(50.588235%,50.588235%,54.509804%);fill-opacity:1;" d="M 179.363281 39.277344 C 179.363281 39.324219 179.339844 39.65625 179.292969 40.269531 L 169.367188 40.269531 C 169.546875 41.054688 169.96875 41.671875 170.636719 42.128906 C 171.300781 42.582031 172.132812 42.8125 173.121094 42.8125 C 173.804688 42.8125 174.40625 42.71875 174.925781 42.527344 C 175.464844 42.324219 175.960938 42.011719 176.414062 41.585938 L 178.4375 43.707031 C 177.203125 45.070312 175.398438 45.753906 173.023438 45.753906 C 171.546875 45.753906 170.238281 45.480469 169.101562 44.929688 C 167.960938 44.367188 167.085938 43.589844 166.464844 42.597656 C 165.847656 41.609375 165.539062 40.488281 165.539062 39.230469 C 165.539062 37.992188 165.839844 36.875 166.441406 35.886719 C 167.058594 34.882812 167.898438 34.105469 168.953125 33.554688 C 170.027344 32.992188 171.222656 32.707031 172.539062 32.707031 C 173.820312 32.707031 174.984375 32.976562 176.023438 33.507812 C 177.066406 34.042969 177.878906 34.8125 178.460938 35.816406 C 179.0625 36.804688 179.363281 37.960938 179.363281 39.277344 Z M 172.5625 35.488281 C 171.699219 35.488281 170.976562 35.722656 170.390625 36.191406 C 169.808594 36.664062 169.449219 37.308594 169.320312 38.125 L 175.78125 38.125 C 175.652344 37.324219 175.292969 36.6875 174.707031 36.21875 C 174.121094 35.730469 173.40625 35.488281 172.5625 35.488281 Z M 172.5625 35.488281 "/>
<path style=" stroke:none;fill-rule:evenodd;fill:rgb(50.588235%,50.588235%,54.509804%);fill-opacity:1;" d="M 38.636719 19.898438 C 38.058594 19.574219 37.34375 19.574219 36.761719 19.898438 C 32.644531 22.199219 29.871094 26.503906 29.871094 31.433594 C 29.871094 32.136719 29.925781 32.828125 30.035156 33.5 C 27.203125 32.570312 24.132812 32.910156 21.628906 34.304688 C 21.046875 34.628906 20.691406 35.226562 20.691406 35.871094 C 20.695312 39.285156 22.527344 42.609375 25.816406 44.441406 C 27.425781 45.339844 29.1875 45.769531 30.921875 45.769531 C 30.65625 46.492188 30.515625 47.269531 30.515625 48.078125 C 30.515625 51.914062 33.730469 55.019531 37.699219 55.019531 C 41.667969 55.019531 44.882812 51.914062 44.882812 48.078125 C 44.882812 47.269531 44.738281 46.488281 44.476562 45.765625 C 46.105469 45.714844 47.75 45.285156 49.265625 44.441406 C 52.550781 42.609375 54.386719 39.285156 54.386719 35.871094 C 54.390625 35.226562 54.03125 34.628906 53.453125 34.304688 C 51.042969 32.964844 48.117188 32.601562 45.378906 33.398438 C 45.476562 32.757812 45.527344 32.101562 45.527344 31.433594 C 45.527344 26.503906 42.753906 22.199219 38.636719 19.898438 Z M 33.613281 31.433594 C 33.613281 28.230469 35.21875 25.390625 37.699219 23.621094 C 40.183594 25.390625 41.785156 28.230469 41.785156 31.433594 C 41.785156 34.636719 40.183594 37.480469 37.699219 39.25 C 35.21875 37.480469 33.613281 34.636719 33.613281 31.433594 Z M 45.078125 37.4375 C 46.804688 36.472656 48.800781 36.359375 50.546875 36.972656 C 50.21875 38.734375 49.121094 40.347656 47.394531 41.3125 C 45.667969 42.277344 43.671875 42.386719 41.925781 41.777344 C 42.25 40.015625 43.351562 38.402344 45.078125 37.4375 Z M 24.535156 36.972656 C 26.277344 36.359375 28.273438 36.472656 30 37.4375 C 31.730469 38.398438 32.828125 40.015625 33.152344 41.777344 C 31.410156 42.386719 29.414062 42.277344 27.683594 41.3125 C 25.957031 40.347656 24.859375 38.734375 24.535156 36.972656 Z M 34.253906 48.078125 C 34.253906 46.242188 35.796875 44.753906 37.699219 44.753906 C 39.601562 44.753906 41.144531 46.242188 41.144531 48.078125 C 41.144531 49.917969 39.601562 51.40625 37.699219 51.40625 C 35.796875 51.40625 34.253906 49.917969 34.253906 48.078125 Z M 34.253906 48.078125 "/>
</g>
</svg>
