<?xml version="1.0" encoding="UTF-8"?>
<svg xmlns="http://www.w3.org/2000/svg" xmlns:xlink="http://www.w3.org/1999/xlink" width="px" height="px" viewBox="0 0 200 75" version="1.1">
<g id="surface1">
<path style=" stroke:none;fill-rule:nonzero;fill:rgb(50.588235%,50.588235%,54.509804%);fill-opacity:1;" d="M 72.101562 49.109375 C 69.855469 49.109375 67.871094 48.65625 66.148438 47.753906 C 64.425781 46.828125 63.09375 45.527344 62.152344 43.839844 C 61.210938 42.15625 60.738281 40.175781 60.738281 37.894531 C 60.738281 35.613281 61.210938 33.632812 62.152344 31.945312 C 63.09375 30.242188 64.425781 28.9375 66.148438 28.035156 C 67.871094 27.109375 69.855469 26.648438 72.101562 26.648438 C 73.625 26.648438 74.96875 26.8125 76.128906 27.140625 C 77.3125 27.449219 78.394531 27.941406 79.375 28.621094 L 79.375 33.085938 C 78.496094 32.347656 77.484375 31.8125 76.339844 31.484375 C 75.21875 31.136719 73.933594 30.960938 72.492188 30.960938 C 71.148438 30.960938 69.9375 31.25 68.855469 31.824219 C 67.792969 32.378906 66.949219 33.179688 66.328125 34.226562 C 65.707031 35.273438 65.398438 36.496094 65.398438 37.894531 C 65.398438 39.3125 65.679688 40.554688 66.238281 41.621094 C 66.820312 42.671875 67.632812 43.480469 68.675781 44.058594 C 69.714844 44.632812 70.917969 44.917969 72.28125 44.917969 C 73.523438 44.917969 74.605469 44.695312 75.527344 44.242188 L 75.527344 40.082031 L 72.132812 40.082031 L 72.132812 36.628906 L 79.949219 36.628906 L 79.949219 47.015625 C 77.964844 48.410156 75.347656 49.109375 72.101562 49.109375 Z M 72.101562 49.109375 "/>
<path style=" stroke:none;fill-rule:nonzero;fill:rgb(50.588235%,50.588235%,54.509804%);fill-opacity:1;" d="M 81.003906 33.859375 L 85.390625 33.859375 L 85.390625 35.984375 C 85.972656 35.265625 86.785156 34.71875 87.828125 34.351562 C 88.867188 33.960938 90.050781 33.765625 91.375 33.765625 L 91.375 37.308594 C 89.992188 37.308594 88.769531 37.523438 87.707031 37.957031 C 86.664062 38.386719 85.941406 39.042969 85.542969 39.929688 L 85.542969 48.648438 L 81.003906 48.648438 Z M 81.003906 33.859375 "/>
<path style=" stroke:none;fill-rule:nonzero;fill:rgb(50.588235%,50.588235%,54.509804%);fill-opacity:1;" d="M 100.097656 49.109375 C 97.332031 49.109375 95.15625 48.433594 93.574219 47.078125 C 91.992188 45.699219 91.199219 43.78125 91.199219 41.3125 C 91.199219 38.871094 91.902344 36.9375 93.304688 35.523438 C 94.726562 34.105469 96.75 33.394531 99.375 33.394531 C 101.101562 33.394531 102.5625 33.722656 103.765625 34.382812 C 104.96875 35.039062 105.878906 35.953125 106.5 37.125 C 107.121094 38.273438 107.433594 39.578125 107.433594 41.039062 L 107.433594 42.917969 L 95.527344 42.917969 C 95.847656 44.808594 97.574219 45.75 100.699219 45.75 C 101.621094 45.75 102.574219 45.667969 103.554688 45.503906 C 104.535156 45.339844 105.390625 45.113281 106.109375 44.828125 L 106.109375 48.09375 C 105.410156 48.402344 104.507812 48.648438 103.40625 48.832031 C 102.300781 49.019531 101.199219 49.109375 100.097656 49.109375 Z M 103.132812 39.898438 C 103.074219 38.910156 102.714844 38.152344 102.050781 37.617188 C 101.390625 37.0625 100.476562 36.785156 99.316406 36.785156 C 98.175781 36.785156 97.273438 37.0625 96.609375 37.617188 C 95.949219 38.171875 95.589844 38.929688 95.527344 39.898438 Z M 103.132812 39.898438 "/>
<path style=" stroke:none;fill-rule:nonzero;fill:rgb(50.588235%,50.588235%,54.509804%);fill-opacity:1;" d="M 116.738281 49.109375 C 113.972656 49.109375 111.796875 48.433594 110.214844 47.078125 C 108.632812 45.699219 107.839844 43.78125 107.839844 41.3125 C 107.839844 38.871094 108.539062 36.9375 109.945312 35.523438 C 111.367188 34.105469 113.390625 33.394531 116.015625 33.394531 C 117.738281 33.394531 119.203125 33.722656 120.40625 34.382812 C 121.609375 35.039062 122.519531 35.953125 123.140625 37.125 C 123.761719 38.273438 124.074219 39.578125 124.074219 41.039062 L 124.074219 42.917969 L 112.167969 42.917969 C 112.488281 44.808594 114.210938 45.75 117.339844 45.75 C 118.261719 45.75 119.214844 45.667969 120.195312 45.503906 C 121.175781 45.339844 122.027344 45.113281 122.75 44.828125 L 122.75 48.09375 C 122.046875 48.402344 121.148438 48.648438 120.042969 48.832031 C 118.941406 49.019531 117.839844 49.109375 116.738281 49.109375 Z M 119.773438 39.898438 C 119.714844 38.910156 119.351562 38.152344 118.691406 37.617188 C 118.03125 37.0625 117.117188 36.785156 115.957031 36.785156 C 114.8125 36.785156 113.910156 37.0625 113.25 37.617188 C 112.589844 38.171875 112.226562 38.929688 112.167969 39.898438 Z M 119.773438 39.898438 "/>
<path style=" stroke:none;fill-rule:nonzero;fill:rgb(50.588235%,50.588235%,54.509804%);fill-opacity:1;" d="M 125.082031 33.859375 L 129.46875 33.859375 L 129.46875 35.675781 C 130.132812 34.914062 130.910156 34.351562 131.8125 33.980469 C 132.734375 33.589844 133.699219 33.394531 134.699219 33.394531 C 136.664062 33.394531 138.128906 33.941406 139.089844 35.027344 C 140.070312 36.097656 140.5625 37.546875 140.5625 39.375 L 140.5625 48.648438 L 136.023438 48.648438 L 136.023438 39.898438 C 136.023438 37.988281 135.160156 37.03125 133.4375 37.03125 C 132.675781 37.03125 131.964844 37.226562 131.304688 37.617188 C 130.640625 37.988281 130.082031 38.542969 129.621094 39.28125 L 129.621094 48.648438 L 125.082031 48.648438 Z M 125.082031 33.859375 "/>
<path style=" stroke:none;fill-rule:nonzero;fill:rgb(50.588235%,50.588235%,54.509804%);fill-opacity:1;" d="M 144.566406 31.578125 C 143.867188 31.578125 143.273438 31.339844 142.792969 30.867188 C 142.3125 30.394531 142.074219 29.800781 142.074219 29.082031 C 142.074219 28.382812 142.3125 27.796875 142.792969 27.324219 C 143.273438 26.832031 143.867188 26.585938 144.566406 26.585938 C 145.269531 26.585938 145.859375 26.832031 146.339844 27.324219 C 146.820312 27.796875 147.0625 28.382812 147.0625 29.082031 C 147.0625 29.800781 146.820312 30.394531 146.339844 30.867188 C 145.859375 31.339844 145.269531 31.578125 144.566406 31.578125 Z M 142.28125 33.859375 L 146.851562 33.859375 L 146.851562 48.648438 L 142.28125 48.648438 Z M 142.28125 33.859375 "/>
<path style=" stroke:none;fill-rule:nonzero;fill:rgb(50.588235%,50.588235%,54.509804%);fill-opacity:1;" d="M 154.59375 49.109375 C 153.511719 49.109375 152.347656 48.988281 151.105469 48.742188 C 149.882812 48.515625 148.921875 48.1875 148.222656 47.753906 L 148.222656 44.117188 C 149.023438 44.613281 149.984375 45.011719 151.105469 45.320312 C 152.230469 45.628906 153.273438 45.78125 154.234375 45.78125 C 155.054688 45.78125 155.65625 45.710938 156.035156 45.566406 C 156.417969 45.421875 156.609375 45.15625 156.609375 44.765625 C 156.609375 44.457031 156.496094 44.210938 156.277344 44.027344 C 156.058594 43.820312 155.714844 43.644531 155.253906 43.503906 C 154.816406 43.335938 154.074219 43.101562 153.03125 42.792969 C 151.808594 42.421875 150.847656 42.054688 150.144531 41.683594 C 149.464844 41.292969 148.941406 40.8125 148.582031 40.234375 C 148.242188 39.660156 148.070312 38.921875 148.070312 38.015625 C 148.070312 36.476562 148.660156 35.328125 149.84375 34.566406 C 151.046875 33.785156 152.671875 33.394531 154.714844 33.394531 C 155.714844 33.394531 156.75 33.507812 157.808594 33.734375 C 158.890625 33.941406 159.722656 34.21875 160.304688 34.566406 L 160.304688 38.109375 C 159.722656 37.71875 158.964844 37.402344 158.019531 37.15625 C 157.097656 36.90625 156.199219 36.785156 155.316406 36.785156 C 154.492188 36.785156 153.851562 36.867188 153.390625 37.03125 C 152.949219 37.195312 152.730469 37.503906 152.730469 37.957031 C 152.730469 38.347656 152.941406 38.644531 153.363281 38.847656 C 153.800781 39.054688 154.613281 39.3125 155.796875 39.621094 L 156.398438 39.773438 C 157.660156 40.121094 158.640625 40.511719 159.34375 40.945312 C 160.046875 41.355469 160.535156 41.859375 160.816406 42.453125 C 161.117188 43.03125 161.269531 43.757812 161.269531 44.640625 C 161.269531 46 160.695312 47.085938 159.554688 47.910156 C 158.410156 48.710938 156.757812 49.109375 154.59375 49.109375 Z M 154.59375 49.109375 "/>
<path style=" stroke:none;fill-rule:nonzero;fill:rgb(50.588235%,50.588235%,54.509804%);fill-opacity:1;" d="M 162.316406 25.875 L 166.855469 25.875 L 166.855469 35.550781 C 167.539062 34.832031 168.308594 34.300781 169.171875 33.949219 C 170.03125 33.582031 170.953125 33.394531 171.9375 33.394531 C 173.902344 33.394531 175.363281 33.941406 176.324219 35.027344 C 177.308594 36.097656 177.800781 37.546875 177.800781 39.375 L 177.800781 48.648438 L 173.261719 48.648438 L 173.261719 39.898438 C 173.261719 37.988281 172.398438 37.03125 170.675781 37.03125 C 169.914062 37.03125 169.203125 37.226562 168.539062 37.617188 C 167.878906 37.988281 167.316406 38.542969 166.855469 39.28125 L 166.855469 48.648438 L 162.316406 48.648438 Z M 162.316406 25.875 "/>
<path style=" stroke:none;fill-rule:evenodd;fill:rgb(50.588235%,50.588235%,54.509804%);fill-opacity:1;" d="M 45.234375 30.238281 C 45.234375 34.152344 42.140625 37.324219 38.320312 37.324219 C 34.503906 37.324219 31.40625 34.152344 31.40625 30.238281 C 31.40625 26.324219 34.503906 23.148438 38.320312 23.148438 C 42.140625 23.148438 45.234375 26.324219 45.234375 30.238281 Z M 22.238281 36.808594 C 29.769531 36.289062 36.335938 42.070312 36.949219 49.808594 C 37.011719 50.609375 37.007812 51.398438 36.945312 52.175781 C 29.410156 52.695312 22.84375 46.914062 22.234375 39.179688 C 22.171875 38.375 22.171875 37.585938 22.238281 36.808594 Z M 41.816406 51.90625 C 49.367188 51.277344 55.007812 44.550781 54.5 36.828125 C 53.742188 36.761719 52.96875 36.757812 52.1875 36.824219 C 44.636719 37.449219 39 44.179688 39.507812 51.902344 C 40.261719 51.96875 41.035156 51.96875 41.816406 51.90625 Z M 41.816406 51.90625 "/>
</g>
</svg>
