<?xml version="1.0" encoding="UTF-8"?>
<svg xmlns="http://www.w3.org/2000/svg" xmlns:xlink="http://www.w3.org/1999/xlink" width="px" height="px" viewBox="0 0 200 75" version="1.1">
<g id="surface1">
<path style=" stroke:none;fill-rule:evenodd;fill:rgb(50.588235%,50.588235%,54.509804%);fill-opacity:1;" d="M 28.015625 29.496094 C 30.625 26.160156 34.804688 24 39.515625 24 C 44.253906 24 48.453125 26.1875 51.058594 29.554688 C 50.949219 29.664062 50.847656 29.773438 50.757812 29.886719 C 50.277344 30.476562 49.917969 31.230469 49.632812 32 C 49.050781 33.546875 48.609375 35.566406 48.199219 37.453125 L 48.164062 37.625 C 47.753906 39.511719 47.375 41.265625 46.917969 42.570312 C 46.710938 43.15625 46.515625 43.570312 46.34375 43.832031 C 46.160156 43.566406 45.957031 43.148438 45.738281 42.554688 C 45.246094 41.214844 44.835938 39.390625 44.398438 37.445312 L 44.382812 37.382812 C 43.960938 35.511719 43.515625 33.527344 42.960938 32.007812 C 42.679688 31.246094 42.335938 30.496094 41.890625 29.914062 C 41.449219 29.34375 40.714844 28.699219 39.644531 28.699219 C 38.578125 28.699219 37.84375 29.335938 37.398438 29.902344 C 36.941406 30.480469 36.582031 31.226562 36.289062 31.988281 C 35.699219 33.527344 35.214844 35.535156 34.765625 37.429688 L 34.71875 37.625 C 34.273438 39.5 33.855469 41.253906 33.382812 42.558594 C 33.203125 43.058594 33.035156 43.4375 32.878906 43.707031 C 32.726562 43.4375 32.5625 43.0625 32.386719 42.566406 C 31.933594 41.289062 31.535156 39.585938 31.109375 37.753906 L 31.035156 37.433594 C 30.59375 35.539062 30.113281 33.527344 29.511719 31.984375 C 29.214844 31.21875 28.851562 30.46875 28.378906 29.886719 C 28.273438 29.757812 28.152344 29.625 28.015625 29.496094 Z M 26.433594 32.058594 C 26.558594 32.289062 26.691406 32.578125 26.828125 32.929688 C 27.347656 34.261719 27.785156 36.082031 28.238281 38.023438 L 28.328125 38.402344 C 28.738281 40.171875 29.167969 42.011719 29.671875 43.4375 C 29.941406 44.191406 30.265625 44.933594 30.683594 45.511719 C 31.078125 46.054688 31.785156 46.757812 32.875 46.757812 C 33.960938 46.757812 34.671875 46.058594 35.066406 45.515625 C 35.488281 44.941406 35.816406 44.199219 36.09375 43.445312 C 36.617188 41.992188 37.066406 40.109375 37.492188 38.304688 L 37.558594 38.027344 C 38.019531 36.085938 38.464844 34.261719 38.980469 32.925781 C 39.21875 32.304688 39.441406 31.871094 39.636719 31.601562 C 39.820312 31.867188 40.03125 32.292969 40.253906 32.902344 C 40.746094 34.246094 41.160156 36.066406 41.597656 38.011719 L 41.609375 38.078125 C 42.03125 39.945312 42.476562 41.929688 43.035156 43.449219 C 43.3125 44.210938 43.65625 44.960938 44.105469 45.542969 C 44.542969 46.113281 45.277344 46.757812 46.347656 46.757812 C 47.425781 46.757812 48.15625 46.109375 48.589844 45.53125 C 49.03125 44.945312 49.363281 44.195312 49.632812 43.433594 C 50.148438 41.96875 50.558594 40.070312 50.949219 38.265625 L 51.003906 38.003906 C 51.425781 36.058594 51.832031 34.242188 52.328125 32.914062 C 52.4375 32.625 52.542969 32.378906 52.644531 32.167969 C 53.410156 33.835938 53.835938 35.671875 53.835938 37.605469 C 53.835938 45.121094 47.421875 51.210938 39.515625 51.210938 C 31.605469 51.210938 25.195312 45.121094 25.195312 37.605469 C 25.195312 35.628906 25.636719 33.75 26.433594 32.058594 Z M 39.515625 21.277344 C 30.023438 21.277344 22.332031 28.589844 22.332031 37.605469 C 22.332031 46.621094 30.023438 53.933594 39.515625 53.933594 C 49.003906 53.933594 56.699219 46.621094 56.699219 37.605469 C 56.699219 28.589844 49.003906 21.277344 39.515625 21.277344 Z M 39.839844 31.375 C 39.839844 31.375 39.839844 31.378906 39.832031 31.382812 C 39.839844 31.375 39.839844 31.375 39.839844 31.375 Z M 39.445312 31.378906 C 39.4375 31.375 39.4375 31.371094 39.4375 31.371094 C 39.4375 31.371094 39.4375 31.371094 39.445312 31.378906 Z M 46.128906 44.09375 C 46.128906 44.09375 46.132812 44.089844 46.140625 44.085938 C 46.132812 44.089844 46.128906 44.09375 46.128906 44.09375 Z M 46.546875 44.082031 C 46.554688 44.085938 46.558594 44.085938 46.558594 44.085938 C 46.558594 44.089844 46.554688 44.085938 46.546875 44.082031 Z M 32.582031 44.117188 C 32.582031 44.117188 32.585938 44.113281 32.59375 44.105469 C 32.585938 44.113281 32.582031 44.117188 32.582031 44.117188 Z M 33.160156 44.109375 C 33.167969 44.113281 33.171875 44.117188 33.171875 44.117188 C 33.171875 44.121094 33.167969 44.117188 33.160156 44.109375 Z M 33.160156 44.109375 "/>
<path style=" stroke:none;fill-rule:nonzero;fill:rgb(50.588235%,50.588235%,54.509804%);fill-opacity:1;" d="M 66.1875 47.273438 L 62.019531 33.726562 L 65.667969 33.726562 L 68.140625 43.476562 L 71.015625 33.726562 L 75.09375 33.726562 L 77.96875 43.476562 L 80.46875 33.726562 L 84.121094 33.726562 L 79.921875 47.273438 L 76.101562 47.273438 L 73.054688 37.140625 L 70.007812 47.273438 Z M 66.1875 47.273438 "/>
<path style=" stroke:none;fill-rule:nonzero;fill:rgb(50.588235%,50.588235%,54.509804%);fill-opacity:1;" d="M 89.476562 47.597656 C 88.25 47.597656 87.242188 47.417969 86.457031 47.054688 C 85.671875 46.671875 85.089844 46.171875 84.703125 45.550781 C 84.320312 44.933594 84.128906 44.25 84.128906 43.503906 C 84.128906 42.246094 84.648438 41.226562 85.679688 40.445312 C 86.714844 39.664062 88.269531 39.269531 90.335938 39.269531 L 93.957031 39.269531 L 93.957031 38.941406 C 93.957031 38.015625 93.679688 37.332031 93.125 36.894531 C 92.570312 36.457031 91.878906 36.238281 91.054688 36.238281 C 90.308594 36.238281 89.65625 36.414062 89.101562 36.757812 C 88.546875 37.085938 88.199219 37.578125 88.066406 38.234375 L 84.472656 38.234375 C 84.570312 37.25 84.914062 36.394531 85.507812 35.667969 C 86.121094 34.9375 86.90625 34.382812 87.867188 34 C 88.824219 33.601562 89.898438 33.402344 91.085938 33.402344 C 93.117188 33.402344 94.714844 33.882812 95.882812 34.847656 C 97.050781 35.8125 97.636719 37.175781 97.636719 38.941406 L 97.636719 47.273438 L 94.503906 47.273438 L 94.160156 45.085938 C 93.738281 45.816406 93.144531 46.414062 92.378906 46.890625 C 91.628906 47.363281 90.664062 47.597656 89.476562 47.597656 Z M 90.308594 44.867188 C 91.363281 44.867188 92.175781 44.539062 92.75 43.886719 C 93.34375 43.230469 93.71875 42.421875 93.871094 41.457031 L 90.738281 41.457031 C 89.761719 41.457031 89.0625 41.628906 88.640625 41.972656 C 88.21875 42.300781 88.007812 42.710938 88.007812 43.203125 C 88.007812 43.730469 88.21875 44.140625 88.640625 44.429688 C 89.0625 44.722656 89.617188 44.867188 90.308594 44.867188 Z M 90.308594 44.867188 "/>
<path style=" stroke:none;fill-rule:nonzero;fill:rgb(50.588235%,50.588235%,54.509804%);fill-opacity:1;" d="M 103.425781 47.273438 L 98.199219 33.726562 L 102.046875 33.726562 L 105.667969 43.96875 L 109.289062 33.726562 L 113.140625 33.726562 L 107.882812 47.273438 Z M 103.425781 47.273438 "/>
<path style=" stroke:none;fill-rule:nonzero;fill:rgb(50.588235%,50.588235%,54.509804%);fill-opacity:1;" d="M 120.535156 47.597656 C 119.097656 47.597656 117.824219 47.308594 116.714844 46.726562 C 115.601562 46.144531 114.730469 45.324219 114.097656 44.269531 C 113.464844 43.210938 113.152344 41.992188 113.152344 40.609375 C 113.152344 39.207031 113.457031 37.960938 114.070312 36.867188 C 114.703125 35.777344 115.5625 34.929688 116.65625 34.328125 C 117.765625 33.710938 119.070312 33.402344 120.566406 33.402344 C 121.964844 33.402344 123.199219 33.691406 124.273438 34.273438 C 125.34375 34.855469 126.179688 35.65625 126.773438 36.675781 C 127.386719 37.679688 127.691406 38.796875 127.691406 40.035156 C 127.691406 40.234375 127.683594 40.445312 127.664062 40.664062 C 127.664062 40.882812 127.652344 41.109375 127.632812 41.347656 L 116.800781 41.347656 C 116.875 42.402344 117.261719 43.230469 117.949219 43.832031 C 118.65625 44.429688 119.511719 44.730469 120.507812 44.730469 C 121.253906 44.730469 121.878906 44.578125 122.375 44.269531 C 122.890625 43.941406 123.277344 43.523438 123.523438 43.011719 L 127.261719 43.011719 C 126.992188 43.867188 126.542969 44.648438 125.910156 45.359375 C 125.296875 46.050781 124.53125 46.597656 123.609375 47 C 122.710938 47.398438 121.683594 47.597656 120.535156 47.597656 Z M 120.566406 36.238281 C 119.664062 36.238281 118.867188 36.484375 118.179688 36.976562 C 117.488281 37.449219 117.050781 38.179688 116.855469 39.160156 L 123.957031 39.160156 C 123.898438 38.269531 123.554688 37.558594 122.921875 37.03125 C 122.289062 36.503906 121.503906 36.238281 120.566406 36.238281 Z M 120.566406 36.238281 "/>
<path style=" stroke:none;fill-rule:nonzero;fill:rgb(50.588235%,50.588235%,54.509804%);fill-opacity:1;" d="M 129.636719 47.273438 L 129.636719 27.613281 L 133.316406 27.613281 L 133.316406 47.273438 Z M 129.636719 47.273438 "/>
<path style=" stroke:none;fill-rule:nonzero;fill:rgb(50.588235%,50.588235%,54.509804%);fill-opacity:1;" d="M 142.847656 47.597656 C 141.414062 47.597656 140.136719 47.308594 139.027344 46.726562 C 137.914062 46.144531 137.042969 45.324219 136.410156 44.269531 C 135.78125 43.210938 135.464844 41.992188 135.464844 40.609375 C 135.464844 39.207031 135.769531 37.960938 136.382812 36.867188 C 137.015625 35.777344 137.878906 34.929688 138.96875 34.328125 C 140.082031 33.710938 141.382812 33.402344 142.878906 33.402344 C 144.277344 33.402344 145.511719 33.691406 146.585938 34.273438 C 147.65625 34.855469 148.492188 35.65625 149.085938 36.675781 C 149.699219 37.679688 150.003906 38.796875 150.003906 40.035156 C 150.003906 40.234375 149.996094 40.445312 149.976562 40.664062 C 149.976562 40.882812 149.964844 41.109375 149.949219 41.347656 L 139.113281 41.347656 C 139.191406 42.402344 139.574219 43.230469 140.261719 43.832031 C 140.972656 44.429688 141.824219 44.730469 142.820312 44.730469 C 143.566406 44.730469 144.191406 44.578125 144.6875 44.269531 C 145.207031 43.941406 145.589844 43.523438 145.839844 43.011719 L 149.574219 43.011719 C 149.304688 43.867188 148.855469 44.648438 148.222656 45.359375 C 147.609375 46.050781 146.84375 46.597656 145.925781 47 C 145.023438 47.398438 144 47.597656 142.847656 47.597656 Z M 142.878906 36.238281 C 141.976562 36.238281 141.183594 36.484375 140.492188 36.976562 C 139.804688 37.449219 139.363281 38.179688 139.171875 39.160156 L 146.269531 39.160156 C 146.210938 38.269531 145.867188 37.558594 145.234375 37.03125 C 144.601562 36.503906 143.816406 36.238281 142.878906 36.238281 Z M 142.878906 36.238281 "/>
<path style=" stroke:none;fill-rule:nonzero;fill:rgb(50.588235%,50.588235%,54.509804%);fill-opacity:1;" d="M 157.839844 47.597656 C 156.578125 47.597656 155.464844 47.40625 154.507812 47.027344 C 153.550781 46.625 152.78125 46.078125 152.207031 45.386719 C 151.632812 44.695312 151.289062 43.894531 151.171875 42.984375 L 154.878906 42.984375 C 154.996094 43.511719 155.300781 43.96875 155.800781 44.351562 C 156.316406 44.714844 156.976562 44.894531 157.78125 44.894531 C 158.589844 44.894531 159.171875 44.742188 159.535156 44.429688 C 159.917969 44.121094 160.109375 43.765625 160.109375 43.367188 C 160.109375 42.785156 159.84375 42.394531 159.304688 42.191406 C 158.769531 41.972656 158.023438 41.765625 157.066406 41.566406 C 156.453125 41.4375 155.828125 41.28125 155.195312 41.101562 C 154.566406 40.917969 153.980469 40.691406 153.445312 40.417969 C 152.925781 40.125 152.503906 39.761719 152.179688 39.324219 C 151.851562 38.871094 151.691406 38.316406 151.691406 37.660156 C 151.691406 36.457031 152.1875 35.449219 153.183594 34.628906 C 154.199219 33.808594 155.617188 33.402344 157.4375 33.402344 C 159.125 33.402344 160.464844 33.773438 161.460938 34.519531 C 162.476562 35.265625 163.082031 36.292969 163.273438 37.605469 L 159.796875 37.605469 C 159.585938 36.605469 158.789062 36.105469 157.410156 36.105469 C 156.71875 36.105469 156.183594 36.230469 155.800781 36.484375 C 155.4375 36.742188 155.253906 37.058594 155.253906 37.441406 C 155.253906 37.84375 155.53125 38.160156 156.089844 38.398438 C 156.644531 38.632812 157.382812 38.851562 158.300781 39.050781 C 159.296875 39.269531 160.207031 39.515625 161.03125 39.789062 C 161.875 40.042969 162.542969 40.4375 163.042969 40.964844 C 163.539062 41.472656 163.789062 42.210938 163.789062 43.175781 C 163.808594 44.011719 163.578125 44.769531 163.101562 45.441406 C 162.621094 46.117188 161.929688 46.644531 161.03125 47.027344 C 160.128906 47.40625 159.066406 47.597656 157.839844 47.597656 Z M 157.839844 47.597656 "/>
<path style=" stroke:none;fill-rule:nonzero;fill:rgb(50.588235%,50.588235%,54.509804%);fill-opacity:1;" d="M 171.789062 47.597656 C 170.527344 47.597656 169.414062 47.40625 168.457031 47.027344 C 167.5 46.625 166.730469 46.078125 166.15625 45.386719 C 165.582031 44.695312 165.238281 43.894531 165.121094 42.984375 L 168.828125 42.984375 C 168.945312 43.511719 169.25 43.96875 169.75 44.351562 C 170.265625 44.714844 170.925781 44.894531 171.734375 44.894531 C 172.535156 44.894531 173.121094 44.742188 173.484375 44.429688 C 173.867188 44.121094 174.058594 43.765625 174.058594 43.367188 C 174.058594 42.785156 173.792969 42.394531 173.253906 42.191406 C 172.71875 41.972656 171.972656 41.765625 171.015625 41.566406 C 170.402344 41.4375 169.777344 41.28125 169.144531 41.101562 C 168.515625 40.917969 167.929688 40.691406 167.394531 40.417969 C 166.875 40.125 166.453125 39.761719 166.128906 39.324219 C 165.800781 38.871094 165.640625 38.316406 165.640625 37.660156 C 165.640625 36.457031 166.136719 35.449219 167.132812 34.628906 C 168.148438 33.808594 169.566406 33.402344 171.386719 33.402344 C 173.074219 33.402344 174.414062 33.773438 175.410156 34.519531 C 176.425781 35.265625 177.03125 36.292969 177.222656 37.605469 L 173.742188 37.605469 C 173.535156 36.605469 172.738281 36.105469 171.359375 36.105469 C 170.667969 36.105469 170.132812 36.230469 169.75 36.484375 C 169.386719 36.742188 169.203125 37.058594 169.203125 37.441406 C 169.203125 37.84375 169.480469 38.160156 170.035156 38.398438 C 170.59375 38.632812 171.328125 38.851562 172.25 39.050781 C 173.246094 39.269531 174.15625 39.515625 174.980469 39.789062 C 175.824219 40.042969 176.492188 40.4375 176.992188 40.964844 C 177.488281 41.472656 177.738281 42.210938 177.738281 43.175781 C 177.757812 44.011719 177.527344 44.769531 177.050781 45.441406 C 176.570312 46.117188 175.878906 46.644531 174.980469 47.027344 C 174.078125 47.40625 173.015625 47.597656 171.789062 47.597656 Z M 171.789062 47.597656 "/>
</g>
</svg>
