<?xml version="1.0" standalone="no"?>
<!DOCTYPE svg PUBLIC "-//W3C//DTD SVG 20010904//EN"
 "http://www.w3.org/TR/2001/REC-SVG-20010904/DTD/svg10.dtd">
<svg version="1.0" xmlns="http://www.w3.org/2000/svg"
 width="40.000000pt" height="40.000000pt" viewBox="0 0 40.000000 40.000000"
 preserveAspectRatio="xMidYMid meet">
<metadata>
Created by potrace 1.16, written by Peter Selinger 2001-2019
</metadata>
<g transform="translate(0.000000,40.000000) scale(0.100000,-0.100000)"
fill="#000000" stroke="none">
<path d="M0 200 l0 -200 200 0 200 0 0 200 0 200 -200 0 -200 0 0 -200z m100
128 c64 -44 75 -69 75 -170 0 -82 -2 -91 -24 -109 -30 -24 -56 -24 -81 1 -18
18 -20 33 -20 160 0 77 4 140 9 140 4 0 23 -10 41 -22z m250 -22 c0 -84 -64
-123 -115 -71 -30 30 -31 54 -4 89 17 22 28 26 70 26 l49 0 0 -44z m-20 -156
c26 -26 26 -81 0 -105 -11 -10 -34 -18 -52 -18 -44 0 -68 32 -68 94 l0 49 50
0 c37 0 55 -5 70 -20z"/>
</g>
</svg>
